<?xml version="1.0" standalone="no"?>
<!DOCTYPE svg PUBLIC "-//W3C//DTD SVG 20010904//EN"
 "http://www.w3.org/TR/2001/REC-SVG-20010904/DTD/svg10.dtd">
<svg version="1.0" xmlns="http://www.w3.org/2000/svg"
 width="118.000000pt" height="118.000000pt" viewBox="0 0 118.000000 118.000000"
 preserveAspectRatio="xMidYMid meet">
<metadata>
Created by potrace 1.11, written by Peter Selinger 2001-2013
</metadata>
<g transform="translate(0.000000,118.000000) scale(0.100000,-0.100000)"
fill="#000000" stroke="none">
<path d="M219 1069 c-8 -5 264 -382 279 -386 4 -1 31 32 61 73 l53 75 -36 52
c-20 29 -60 83 -88 120 l-53 69 -103 1 c-57 1 -108 -1 -113 -4z"/>
<path d="M724 841 c-154 -207 -173 -236 -162 -252 7 -11 90 -122 183 -249
l170 -229 133 -1 c72 0 132 3 132 6 0 6 -50 74 -306 420 l-52 70 70 95 c39 51
112 150 163 219 51 69 95 131 97 138 2 10 -27 13 -126 15 l-128 2 -174 -234z"/>
<path d="M30 949 c0 -7 49 -78 109 -158 60 -80 114 -156 121 -167 12 -20 2
-37 -123 -205 -74 -101 -133 -187 -131 -191 3 -5 38 -8 79 -8 l73 0 141 189
c78 104 141 192 141 196 0 4 -57 85 -127 181 l-128 173 -77 1 c-52 0 -78 -4
-78 -11z"/>
<path d="M343 326 c-83 -113 -149 -207 -145 -210 3 -3 62 -6 132 -6 l126 0 89
120 88 121 -27 37 c-15 20 -44 60 -64 89 -20 29 -39 52 -42 53 -3 0 -74 -92
-157 -204z"/>
</g>
</svg>
