<!-- By Sam Herbert (@sherb), for everyone. More @ http://goo.gl/7AJzbL -->
<svg width="144" height="144" viewBox="0 0 38 38" xmlns="http://www.w3.org/2000/svg" stroke="#DC0C1C" >
    <g fill="none" fill-rule="evenodd">
        <g transform="translate(1 1)" stroke-width=".55">
            <circle stroke="#DBDEE5" cx="18" cy="18" r="18"/>
            <path d="M36 18c0-9.94-8.06-18-18-18">
                <animateTransform
                    attributeName="transform"
                    type="rotate"
                    from="0 18 18"
                    to="360 18 18"
                    dur="1s"
                    repeatCount="indefinite"/>
            </path>
            <g transform="scale(.259) translate(46, 51)" cx="18" cy="18" r="18">
            <path d="M43.4902 0H34.8428C34.6902 0 34.5376 0.0760563 34.4358 0.202817L21.3376 17.6958C21.2104 17.8732 21.2104 18.1268 21.3376 18.3042L34.4358 35.7972C34.5376 35.9239 34.6902 36 34.8428 36H43.4902C43.8971 36 44.1514 35.5183 43.8971 35.1887L31.2566 18.3042C31.1295 18.1268 31.1295 17.8732 31.2566 17.6958L43.8971 0.811268C44.1514 0.48169 43.9225 0 43.4902 0Z" fill="#DC0C1C"/>
            <path d="M6.89258 4.10693H0.508768C0.101831 4.10693 -0.152504 4.58862 0.101831 4.9182L9.66484 17.6957C9.792 17.8731 9.792 18.1266 9.66484 18.3041L0.101831 31.0816C-0.152504 31.4112 0.101831 31.8928 0.508768 31.8928H6.89258C7.04518 31.8928 7.19778 31.8168 7.29952 31.69L17.3203 18.3041C17.4475 18.1266 17.4475 17.8731 17.3203 17.6957L7.29952 4.30975C7.19778 4.18299 7.04518 4.10693 6.89258 4.10693Z" fill="#DC0C1C"/>
            <path d="M8.9033 36H17.5507C17.7033 36 17.8559 35.9239 17.9576 35.7972L24.1888 27.4817C24.316 27.3042 24.316 27.0507 24.1888 26.8732L19.8651 21.0929C19.6617 20.8141 19.2547 20.8141 19.0513 21.0929L8.49636 35.1887C8.24203 35.5183 8.49636 36 8.9033 36Z" fill="#DC0C1C"/>
            <path d="M24.1888 8.51831L17.9576 0.202817C17.8559 0.0760563 17.7033 0 17.5507 0H8.9033C8.49636 0 8.24203 0.48169 8.49636 0.811268L19.0513 14.907C19.2547 15.1859 19.6617 15.1859 19.8651 14.907L24.1888 9.12676C24.3414 8.9493 24.3414 8.69577 24.1888 8.51831Z" fill="#DC0C1C"/>
            </g>
        </g>
    </g>
</svg>